<svg width="18" height="10" viewBox="0 0 18 10" fill="none" xmlns="http://www.w3.org/2000/svg">
<g clip-path="url(#clip0_494_9)">
<rect x="0.5" y="0.277832" width="17" height="9.44444" rx="1.51111" fill="black"/>
<mask id="path-2-outside-1_494_9" maskUnits="userSpaceOnUse" x="3.75" y="2.27783" width="10" height="6" fill="black">
<rect fill="white" x="3.75" y="2.27783" width="10" height="6"/>
<path d="M8.77865 6.91629C8.79832 6.96548 8.80816 7.01713 8.80816 7.07123C8.80816 7.12042 8.78356 7.17207 8.73437 7.22618C8.6901 7.28029 8.61386 7.30735 8.50564 7.30735C8.40234 7.30735 8.3261 7.25078 8.27691 7.13764L7.88585 6.20058H5.82726L5.44358 7.13764C5.39439 7.25078 5.31568 7.30735 5.20747 7.30735C5.10417 7.30735 5.02792 7.28029 4.97873 7.22618C4.93446 7.17207 4.91233 7.12042 4.91233 7.07123C4.91233 7.01713 4.92216 6.96548 4.94184 6.91629L6.47656 3.2787C6.54543 3.11145 6.66348 3.02783 6.83073 3.02783H6.88976C7.05208 3.02783 7.17014 3.11145 7.24392 3.2787L8.77865 6.91629ZM7.67925 5.69884L6.86024 3.72879L6.04123 5.69884H7.67925ZM12.5712 6.52523C12.6007 6.51047 12.645 6.50309 12.704 6.50309C12.763 6.50309 12.8147 6.52769 12.8589 6.57688C12.9032 6.62115 12.9253 6.6728 12.9253 6.73183C12.9253 6.84004 12.8786 6.91875 12.7852 6.96794C12.5982 7.07615 12.3966 7.1647 12.1801 7.23356C11.9686 7.30243 11.7104 7.33686 11.4054 7.33686C11.1053 7.33686 10.8249 7.28767 10.5642 7.18929C10.3084 7.09091 10.0871 6.94826 9.90017 6.76134C9.49682 6.36782 9.29514 5.83657 9.29514 5.16759C9.29514 4.50353 9.49682 3.97228 9.90017 3.57384C10.2888 3.19016 10.793 2.99832 11.4128 2.99832C11.7128 2.99832 11.9686 3.03521 12.1801 3.109C12.3966 3.18278 12.5613 3.25165 12.6745 3.31559C12.7876 3.37462 12.8565 3.42381 12.8811 3.46316C12.9106 3.49759 12.9253 3.54433 12.9253 3.60335C12.9253 3.66238 12.9032 3.71649 12.8589 3.76568C12.8147 3.80995 12.763 3.83209 12.704 3.83209C12.6499 3.83209 12.6056 3.82471 12.5712 3.80995C12.4089 3.72141 12.2416 3.65254 12.0694 3.60335C11.9022 3.54924 11.6931 3.52219 11.4423 3.52219C11.1914 3.52219 10.9627 3.56646 10.7561 3.655C10.5544 3.73862 10.3847 3.85422 10.247 4.00179C9.97642 4.29693 9.84361 4.68553 9.84852 5.16759C9.84852 5.64965 9.98134 6.03825 10.247 6.33339C10.5421 6.65312 10.9479 6.81299 11.4644 6.81299C11.7005 6.81299 11.9022 6.78839 12.0694 6.7392C12.2416 6.68509 12.4089 6.61377 12.5712 6.52523Z"/>
</mask>
<path d="M8.77865 6.91629C8.79832 6.96548 8.80816 7.01713 8.80816 7.07123C8.80816 7.12042 8.78356 7.17207 8.73437 7.22618C8.6901 7.28029 8.61386 7.30735 8.50564 7.30735C8.40234 7.30735 8.3261 7.25078 8.27691 7.13764L7.88585 6.20058H5.82726L5.44358 7.13764C5.39439 7.25078 5.31568 7.30735 5.20747 7.30735C5.10417 7.30735 5.02792 7.28029 4.97873 7.22618C4.93446 7.17207 4.91233 7.12042 4.91233 7.07123C4.91233 7.01713 4.92216 6.96548 4.94184 6.91629L6.47656 3.2787C6.54543 3.11145 6.66348 3.02783 6.83073 3.02783H6.88976C7.05208 3.02783 7.17014 3.11145 7.24392 3.2787L8.77865 6.91629ZM7.67925 5.69884L6.86024 3.72879L6.04123 5.69884H7.67925ZM12.5712 6.52523C12.6007 6.51047 12.645 6.50309 12.704 6.50309C12.763 6.50309 12.8147 6.52769 12.8589 6.57688C12.9032 6.62115 12.9253 6.6728 12.9253 6.73183C12.9253 6.84004 12.8786 6.91875 12.7852 6.96794C12.5982 7.07615 12.3966 7.1647 12.1801 7.23356C11.9686 7.30243 11.7104 7.33686 11.4054 7.33686C11.1053 7.33686 10.8249 7.28767 10.5642 7.18929C10.3084 7.09091 10.0871 6.94826 9.90017 6.76134C9.49682 6.36782 9.29514 5.83657 9.29514 5.16759C9.29514 4.50353 9.49682 3.97228 9.90017 3.57384C10.2888 3.19016 10.793 2.99832 11.4128 2.99832C11.7128 2.99832 11.9686 3.03521 12.1801 3.109C12.3966 3.18278 12.5613 3.25165 12.6745 3.31559C12.7876 3.37462 12.8565 3.42381 12.8811 3.46316C12.9106 3.49759 12.9253 3.54433 12.9253 3.60335C12.9253 3.66238 12.9032 3.71649 12.8589 3.76568C12.8147 3.80995 12.763 3.83209 12.704 3.83209C12.6499 3.83209 12.6056 3.82471 12.5712 3.80995C12.4089 3.72141 12.2416 3.65254 12.0694 3.60335C11.9022 3.54924 11.6931 3.52219 11.4423 3.52219C11.1914 3.52219 10.9627 3.56646 10.7561 3.655C10.5544 3.73862 10.3847 3.85422 10.247 4.00179C9.97642 4.29693 9.84361 4.68553 9.84852 5.16759C9.84852 5.64965 9.98134 6.03825 10.247 6.33339C10.5421 6.65312 10.9479 6.81299 11.4644 6.81299C11.7005 6.81299 11.9022 6.78839 12.0694 6.7392C12.2416 6.68509 12.4089 6.61377 12.5712 6.52523Z" fill="white"/>
<path d="M8.77865 6.91629L8.95406 6.84612L8.95268 6.84286L8.77865 6.91629ZM8.73437 7.22618L8.59442 7.09895L8.58818 7.10657L8.73437 7.22618ZM8.27691 7.13764L8.10257 7.2104L8.10369 7.21296L8.27691 7.13764ZM7.88585 6.20058L8.06017 6.12783L8.0117 6.01169H7.88585V6.20058ZM5.82726 6.20058V6.01169H5.70049L5.65245 6.129L5.82726 6.20058ZM5.44358 7.13764L5.61684 7.21297L5.61838 7.20921L5.44358 7.13764ZM4.97873 7.22618L4.83234 7.34596L4.83897 7.35324L4.97873 7.22618ZM4.94184 6.91629L4.76778 6.84285L4.76646 6.84614L4.94184 6.91629ZM6.47656 3.2787L6.6506 3.35213L6.65122 3.35062L6.47656 3.2787ZM7.24392 3.2787L7.41798 3.20526L7.41674 3.20246L7.24392 3.2787ZM7.67925 5.69884V5.88773H7.96234L7.85367 5.62633L7.67925 5.69884ZM6.86024 3.72879L7.03466 3.65628L6.86024 3.23673L6.68583 3.65628L6.86024 3.72879ZM6.04123 5.69884L5.86682 5.62633L5.75814 5.88773H6.04123V5.69884ZM8.60327 6.98644C8.61383 7.01284 8.61927 7.04063 8.61927 7.07123H8.99705C8.99705 6.99362 8.98282 6.91812 8.95402 6.84614L8.60327 6.98644ZM8.61927 7.07123C8.61927 7.0635 8.62135 7.06108 8.61917 7.06565C8.61669 7.07088 8.61003 7.08215 8.59461 7.09912L8.87414 7.35324C8.9399 7.28091 8.99705 7.18579 8.99705 7.07123H8.61927ZM8.58818 7.10657C8.59112 7.10298 8.59165 7.1052 8.58082 7.10904C8.56854 7.1134 8.54504 7.11846 8.50564 7.11846V7.49623C8.63923 7.49623 8.78445 7.46327 8.88057 7.34579L8.58818 7.10657ZM8.50564 7.11846C8.49075 7.11846 8.4862 7.1152 8.48353 7.11322C8.47878 7.1097 8.46539 7.09742 8.45013 7.06233L8.10369 7.21296C8.13762 7.291 8.18694 7.36357 8.25844 7.41662C8.33202 7.47121 8.41723 7.49623 8.50564 7.49623V7.11846ZM8.45123 7.06489L8.06017 6.12783L7.71153 6.27332L8.10259 7.21039L8.45123 7.06489ZM7.88585 6.01169H5.82726V6.38946H7.88585V6.01169ZM5.65245 6.129L5.26877 7.06607L5.61838 7.20921L6.00206 6.27215L5.65245 6.129ZM5.27035 7.06233C5.25568 7.09606 5.24253 7.10786 5.23741 7.11154C5.23389 7.11407 5.22684 7.11846 5.20747 7.11846V7.49623C5.29631 7.49623 5.38272 7.47234 5.4579 7.4183C5.53148 7.36541 5.58228 7.29236 5.6168 7.21296L5.27035 7.06233ZM5.20747 7.11846C5.13484 7.11846 5.11911 7.09979 5.1185 7.09912L4.83897 7.35324C4.93674 7.46079 5.0735 7.49623 5.20747 7.49623V7.11846ZM5.12492 7.10657C5.09686 7.07227 5.10122 7.06169 5.10122 7.07123H4.72344C4.72344 7.17916 4.77207 7.27188 4.83254 7.34579L5.12492 7.10657ZM5.10122 7.07123C5.10122 7.04063 5.10666 7.01284 5.11722 6.98644L4.76646 6.84614C4.73767 6.91812 4.72344 6.99362 4.72344 7.07123H5.10122ZM5.11587 6.98971L6.6506 3.35213L6.30253 3.20527L4.76781 6.84286L5.11587 6.98971ZM6.65122 3.35062C6.67544 3.29181 6.70258 3.26123 6.72593 3.24469C6.74826 3.22888 6.77991 3.21672 6.83073 3.21672V2.83894C6.7143 2.83894 6.60331 2.8686 6.50757 2.93641C6.41287 3.00349 6.34655 3.09835 6.3019 3.20678L6.65122 3.35062ZM6.83073 3.21672H6.88976V2.83894H6.83073V3.21672ZM6.88976 3.21672C6.93678 3.21672 6.96759 3.2282 6.99086 3.24469C7.01557 3.26219 7.04441 3.29443 7.07111 3.35494L7.41674 3.20246C7.36965 3.09573 7.30257 3.00253 7.20922 2.93641C7.11445 2.86928 7.00506 2.83894 6.88976 2.83894V3.21672ZM7.06989 3.35213L8.60461 6.98971L8.95268 6.84286L7.41796 3.20527L7.06989 3.35213ZM7.85367 5.62633L7.03466 3.65628L6.68583 3.8013L7.50484 5.77135L7.85367 5.62633ZM6.68583 3.65628L5.86682 5.62633L6.21565 5.77135L7.03466 3.8013L6.68583 3.65628ZM6.04123 5.88773H7.67925V5.50995H6.04123V5.88773ZM12.5712 6.52523L12.4867 6.35617L12.4807 6.3594L12.5712 6.52523ZM12.8589 6.57688L12.7183 6.70341L12.7254 6.71044L12.8589 6.57688ZM12.7852 6.96794L12.6971 6.80065L12.6905 6.80447L12.7852 6.96794ZM12.1801 7.23356L12.1228 7.05356L12.1216 7.05395L12.1801 7.23356ZM10.5642 7.18929L10.4964 7.36559L10.4975 7.36602L10.5642 7.18929ZM9.90017 6.76134L10.0337 6.62776L10.0321 6.62614L9.90017 6.76134ZM9.90017 3.57384L9.76746 3.43943L9.76743 3.43946L9.90017 3.57384ZM12.1801 3.109L12.1179 3.28735L12.1192 3.28778L12.1801 3.109ZM12.6745 3.31559L12.5815 3.48012L12.5871 3.48306L12.6745 3.31559ZM12.8811 3.46316L12.7209 3.56327L12.7284 3.57531L12.7377 3.58609L12.8811 3.46316ZM12.8589 3.76568L12.9927 3.89943L12.9993 3.89204L12.8589 3.76568ZM12.5712 3.80995L12.4807 3.97577L12.4886 3.98005L12.4968 3.98357L12.5712 3.80995ZM12.0694 3.60335L12.0113 3.78318L12.0176 3.78497L12.0694 3.60335ZM10.7561 3.655L10.8284 3.8295L10.8305 3.82862L10.7561 3.655ZM10.247 4.00179L10.1089 3.8729L10.1077 3.87415L10.247 4.00179ZM9.84852 5.16759L10.0374 5.16759L10.0374 5.16566L9.84852 5.16759ZM10.247 6.33339L10.1066 6.45976L10.1082 6.46151L10.247 6.33339ZM12.0694 6.7392L12.1228 6.92045L12.1261 6.9194L12.0694 6.7392ZM12.6557 6.69418C12.6487 6.69763 12.6478 6.69657 12.6576 6.69495C12.6668 6.6934 12.6818 6.69198 12.704 6.69198V6.3142C12.6353 6.3142 12.5557 6.32179 12.4867 6.35628L12.6557 6.69418ZM12.704 6.69198C12.7055 6.69198 12.7061 6.69213 12.7059 6.69209C12.7057 6.69205 12.7056 6.69199 12.7058 6.69208C12.7059 6.69215 12.7105 6.69425 12.7185 6.70324L12.9993 6.45052C12.9241 6.36689 12.8234 6.3142 12.704 6.3142V6.69198ZM12.7254 6.71044C12.7325 6.71752 12.7345 6.72187 12.7351 6.72322C12.7356 6.72436 12.7365 6.72658 12.7365 6.73183H13.1142C13.1142 6.61943 13.0698 6.52062 12.9925 6.44331L12.7254 6.71044ZM12.7365 6.73183C12.7365 6.75823 12.731 6.77035 12.7279 6.77558C12.7249 6.78056 12.7179 6.78989 12.6972 6.80078L12.8731 7.13509C12.9459 7.09679 13.0089 7.04217 13.0527 6.96845C13.0963 6.89498 13.1142 6.81364 13.1142 6.73183H12.7365ZM12.6905 6.80447C12.516 6.9055 12.3269 6.98863 12.1228 7.05356L12.2374 7.41356C12.4662 7.34076 12.6805 7.24681 12.8798 7.13141L12.6905 6.80447ZM12.1216 7.05395C11.9346 7.11486 11.6973 7.14797 11.4054 7.14797V7.52575C11.7234 7.52575 12.0027 7.48999 12.2386 7.41317L12.1216 7.05395ZM11.4054 7.14797C11.1263 7.14797 10.8687 7.1023 10.6309 7.01257L10.4975 7.36602C10.7812 7.47304 11.0843 7.52575 11.4054 7.52575V7.14797ZM10.632 7.01299C10.4 6.92374 10.2013 6.79532 10.0337 6.62777L9.76661 6.8949C9.97291 7.1012 10.2169 7.25808 10.4964 7.36559L10.632 7.01299ZM10.0321 6.62614C9.67191 6.27475 9.48403 5.79594 9.48403 5.16759H9.10625C9.10625 5.8772 9.32173 6.46089 9.76827 6.89654L10.0321 6.62614ZM9.48403 5.16759C9.48403 4.54468 9.67163 4.0651 10.0329 3.70822L9.76743 3.43946C9.322 3.87945 9.10625 4.46237 9.10625 5.16759H9.48403ZM10.0329 3.70825C10.3813 3.36428 10.8354 3.18721 11.4128 3.18721V2.80943C10.7506 2.80943 10.1963 3.01604 9.76746 3.43943L10.0329 3.70825ZM11.4128 3.18721C11.6984 3.18721 11.9319 3.22245 12.1179 3.28734L12.2423 2.93065C12.0053 2.84797 11.7273 2.80943 11.4128 2.80943V3.18721ZM12.1192 3.28778C12.3315 3.36017 12.4835 3.4246 12.5815 3.48003L12.7674 3.15115C12.6392 3.07869 12.4616 3.00539 12.2411 2.93021L12.1192 3.28778ZM12.5871 3.48306C12.6394 3.51033 12.6765 3.53283 12.7012 3.55046C12.7293 3.57055 12.7284 3.57534 12.7209 3.56327L13.0413 3.36305C13.0091 3.31163 12.9615 3.27215 12.9208 3.24305C12.8766 3.21149 12.8227 3.17988 12.7619 3.14813L12.5871 3.48306ZM12.7377 3.58609C12.7346 3.58247 12.7338 3.57984 12.7342 3.58091C12.7347 3.58257 12.7365 3.58932 12.7365 3.60335H13.1142C13.1142 3.51309 13.0913 3.41813 13.0245 3.34023L12.7377 3.58609ZM12.7365 3.60335C12.7365 3.60998 12.7357 3.6203 12.7185 3.63932L12.9993 3.89204C13.0708 3.81268 13.1142 3.71479 13.1142 3.60335H12.7365ZM12.7254 3.63211C12.7183 3.6392 12.7139 3.64129 12.7126 3.64187C12.7115 3.64235 12.7092 3.6432 12.704 3.6432V4.02097C12.8164 4.02097 12.9152 3.97655 12.9925 3.89924L12.7254 3.63211ZM12.704 3.6432C12.665 3.6432 12.6485 3.63758 12.6456 3.63633L12.4968 3.98357C12.5627 4.01183 12.6348 4.02097 12.704 4.02097V3.6432ZM12.6616 3.64413C12.4875 3.54913 12.3073 3.47487 12.1213 3.42173L12.0176 3.78497C12.1759 3.83021 12.3302 3.89369 12.4807 3.97577L12.6616 3.64413ZM12.1276 3.42364C11.9354 3.36146 11.7052 3.3333 11.4423 3.3333V3.71108C11.6811 3.71108 11.869 3.73702 12.0113 3.78307L12.1276 3.42364ZM11.4423 3.3333C11.1688 3.3333 10.9144 3.38166 10.6817 3.48139L10.8305 3.82862C11.011 3.75126 11.214 3.71108 11.4423 3.71108V3.3333ZM10.6837 3.48052C10.4592 3.57362 10.2665 3.70405 10.1089 3.87291L10.385 4.13067C10.5029 4.00439 10.6496 3.90363 10.8284 3.82949L10.6837 3.48052ZM10.1077 3.87415C9.79842 4.21158 9.65434 4.64989 9.65965 5.16952L10.0374 5.16566C10.0329 4.72117 10.1544 4.38228 10.3862 4.12943L10.1077 3.87415ZM9.65964 5.16759C9.65964 5.68583 9.80335 6.12285 10.1066 6.45975L10.3874 6.20703C10.1593 5.95365 10.0374 5.61347 10.0374 5.16759H9.65964ZM10.1082 6.46151C10.4457 6.82721 10.9059 7.00188 11.4644 7.00188V6.6241C10.9899 6.6241 10.6385 6.47903 10.3858 6.20527L10.1082 6.46151ZM11.4644 7.00188C11.7126 7.00188 11.9333 6.97614 12.1227 6.92042L12.0161 6.55799C11.8711 6.60065 11.6884 6.6241 11.4644 6.6241V7.00188ZM12.1261 6.9194C12.3102 6.86152 12.4888 6.78533 12.6616 6.69105L12.4807 6.3594C12.3289 6.44221 12.173 6.50867 12.0128 6.559L12.1261 6.9194Z" fill="white" mask="url(#path-2-outside-1_494_9)"/>
</g>
<defs>
<clipPath id="clip0_494_9">
<rect x="0.5" y="0.277832" width="17" height="9.44444" rx="1.51111" fill="white"/>
</clipPath>
</defs>
</svg>
