<svg width="17" height="18" viewBox="0 0 17 18" fill="none" xmlns="http://www.w3.org/2000/svg">
<g clip-path="url(#clip0_287_16)">
<path d="M8.5 0.600098C7.38376 0.600098 6.27846 0.825415 5.24719 1.26319C4.21592 1.70096 3.27889 2.34261 2.48959 3.1515C0.895533 4.78513 0 7.00082 0 9.31113C0 13.1614 2.4395 16.428 5.814 17.5866C6.239 17.6563 6.375 17.3863 6.375 17.1511V15.6789C4.0205 16.2016 3.519 14.5116 3.519 14.5116C3.128 13.5011 2.5755 13.2311 2.5755 13.2311C1.802 12.691 2.635 12.7084 2.635 12.7084C3.485 12.7694 3.9355 13.6057 3.9355 13.6057C4.675 14.9297 5.9245 14.5377 6.409 14.3287C6.4855 13.7625 6.7065 13.3792 6.9445 13.1614C5.0575 12.9436 3.077 12.1945 3.077 8.87558C3.077 7.90865 3.4 7.13337 3.9525 6.51489C3.8675 6.29711 3.57 5.39116 4.0375 4.21517C4.0375 4.21517 4.7515 3.97998 6.375 5.1037C7.0465 4.91206 7.7775 4.81624 8.5 4.81624C9.2225 4.81624 9.9535 4.91206 10.625 5.1037C12.2485 3.97998 12.9625 4.21517 12.9625 4.21517C13.43 5.39116 13.1325 6.29711 13.0475 6.51489C13.6 7.13337 13.923 7.90865 13.923 8.87558C13.923 12.2032 11.934 12.9349 10.0385 13.1527C10.3445 13.4227 10.625 13.9541 10.625 14.7642V17.1511C10.625 17.3863 10.761 17.665 11.1945 17.5866C14.569 16.4193 17 13.1614 17 9.31113C17 8.16718 16.7801 7.03443 16.353 5.97756C15.9258 4.92069 15.2997 3.96039 14.5104 3.1515C13.7211 2.34261 12.7841 1.70096 11.7528 1.26319C10.7215 0.825415 9.61624 0.600098 8.5 0.600098Z" fill="black"/>
</g>
<defs>
<clipPath id="clip0_287_16">
<rect width="17" height="17" fill="white" transform="translate(0 0.600098)"/>
</clipPath>
</defs>
</svg>
