<svg width="17" height="17" viewBox="0 0 17 17" fill="none" xmlns="http://www.w3.org/2000/svg">
<g clip-path="url(#clip0_304_8)">
<path d="M8.49997 0.340088C3.99327 0.340088 0.339966 3.99339 0.339966 8.50009C0.339966 13.0068 3.99327 16.6601 8.49997 16.6601C13.0067 16.6601 16.66 13.0068 16.66 8.50009C16.66 3.99339 13.0067 0.340088 8.49997 0.340088ZM6.50247 11.8822H4.85007V6.56464H6.50247V11.8822ZM5.66607 5.91184C5.14417 5.91184 4.80672 5.54209 4.80672 5.08479C4.80672 4.61814 5.15437 4.25944 5.68732 4.25944C6.22027 4.25944 6.54667 4.61814 6.55687 5.08479C6.55687 5.54209 6.22027 5.91184 5.66607 5.91184ZM12.5375 11.8822H10.8851V8.93529C10.8851 8.24934 10.6454 7.78354 10.0478 7.78354C9.59137 7.78354 9.32022 8.09889 9.20037 8.40234C9.15617 8.51029 9.14512 8.66329 9.14512 8.81544V11.8814H7.49187V8.26039C7.49187 7.59654 7.47062 7.04149 7.44852 6.56379H8.88417L8.95982 7.30244H8.99297C9.21057 6.95564 9.74352 6.44394 10.6352 6.44394C11.7223 6.44394 12.5375 7.17239 12.5375 8.73809V11.8822Z" fill="black"/>
</g>
<defs>
<clipPath id="clip0_304_8">
<rect width="17" height="17" fill="white"/>
</clipPath>
</defs>
</svg>
