<svg width="30" height="32" viewBox="0 0 30 32" fill="none" xmlns="http://www.w3.org/2000/svg">
<path d="M15.5302 0.5C12.7183 0.500517 9.95922 1.26434 7.54735 2.70999C5.13548 4.15564 3.16128 6.22889 1.83533 8.70858C0.509385 11.1883 -0.118568 13.9814 0.0184566 16.79C0.155481 19.5986 1.05234 22.3173 2.61338 24.6562C4.17441 26.995 6.34105 28.8662 8.88219 30.0702C11.4233 31.2742 14.2436 31.7659 17.0423 31.4926C19.8409 31.2194 22.5129 30.1916 24.7732 28.5189C27.0335 26.8462 28.7973 24.5913 29.8766 21.9947C30.4062 20.721 29.1372 19.441 27.8604 19.9598C25.672 20.8463 23.2422 20.9377 20.9934 20.2183C18.7447 19.499 16.8191 18.0142 15.5516 16.0222C14.284 14.0303 13.7547 11.6571 14.0556 9.31525C14.3565 6.97345 15.4685 4.81115 17.1985 3.20431L17.3181 3.08004C18.1739 2.10146 17.4936 0.512426 16.1407 0.512426H15.7275L15.6219 0.503107L15.5302 0.5Z" fill="black"/>
</svg>
