<svg width="17" height="17" viewBox="0 0 17 17" fill="none" xmlns="http://www.w3.org/2000/svg">
<path d="M4.25 0V1.7H5.1V13.6C5.1 14.5017 5.45821 15.3665 6.09584 16.0042C6.73346 16.6418 7.59826 17 8.5 17C9.40174 17 10.2665 16.6418 10.9042 16.0042C11.5418 15.3665 11.9 14.5017 11.9 13.6V1.7H12.75V0H4.25ZM7.65 11.9C7.14 11.9 6.8 11.56 6.8 11.05C6.8 10.54 7.14 10.2 7.65 10.2C8.16 10.2 8.5 10.54 8.5 11.05C8.5 11.56 8.16 11.9 7.65 11.9ZM9.35 8.5C8.84 8.5 8.5 8.16 8.5 7.65C8.5 7.14 8.84 6.8 9.35 6.8C9.86 6.8 10.2 7.14 10.2 7.65C10.2 8.16 9.86 8.5 9.35 8.5ZM10.2 4.25H6.8V1.7H10.2V4.25Z" fill="black"/>
</svg>
