<svg width="30" height="31" viewBox="0 0 30 31" fill="none" xmlns="http://www.w3.org/2000/svg">
<path d="M15 0.5C15.3315 0.5 15.6495 0.631696 15.8839 0.866117C16.1183 1.10054 16.25 1.41848 16.25 1.75V4.25C16.25 4.58152 16.1183 4.89946 15.8839 5.13388C15.6495 5.3683 15.3315 5.5 15 5.5C14.6685 5.5 14.3505 5.3683 14.1161 5.13388C13.8817 4.89946 13.75 4.58152 13.75 4.25V1.75C13.75 1.41848 13.8817 1.10054 14.1161 0.866117C14.3505 0.631696 14.6685 0.5 15 0.5ZM0 15.5C0 15.1685 0.131696 14.8505 0.366117 14.6161C0.600537 14.3817 0.918479 14.25 1.25 14.25H3.75C4.08152 14.25 4.39946 14.3817 4.63388 14.6161C4.8683 14.8505 5 15.1685 5 15.5C5 15.8315 4.8683 16.1495 4.63388 16.3839C4.39946 16.6183 4.08152 16.75 3.75 16.75H1.25C0.918479 16.75 0.600537 16.6183 0.366117 16.3839C0.131696 16.1495 0 15.8315 0 15.5ZM26.25 14.25C25.9185 14.25 25.6005 14.3817 25.3661 14.6161C25.1317 14.8505 25 15.1685 25 15.5C25 15.8315 25.1317 16.1495 25.3661 16.3839C25.6005 16.6183 25.9185 16.75 26.25 16.75H28.75C29.0815 16.75 29.3995 16.6183 29.6339 16.3839C29.8683 16.1495 30 15.8315 30 15.5C30 15.1685 29.8683 14.8505 29.6339 14.6161C29.3995 14.3817 29.0815 14.25 28.75 14.25H26.25ZM16.25 26.75C16.25 26.4185 16.1183 26.1005 15.8839 25.8661C15.6495 25.6317 15.3315 25.5 15 25.5C14.6685 25.5 14.3505 25.6317 14.1161 25.8661C13.8817 26.1005 13.75 26.4185 13.75 26.75V29.25C13.75 29.5815 13.8817 29.8995 14.1161 30.1339C14.3505 30.3683 14.6685 30.5 15 30.5C15.3315 30.5 15.6495 30.3683 15.8839 30.1339C16.1183 29.8995 16.25 29.5815 16.25 29.25V26.75ZM7.92875 22.5712C8.16309 22.8057 8.29473 23.1235 8.29473 23.455C8.29473 23.7865 8.16309 24.1043 7.92875 24.3387L6.1625 26.1063C6.04719 26.2256 5.90926 26.3209 5.75676 26.3864C5.60425 26.4519 5.44023 26.4864 5.27425 26.4878C5.10828 26.4893 4.94368 26.4576 4.79006 26.3948C4.63644 26.3319 4.49687 26.2391 4.37951 26.1217C4.26214 26.0044 4.16932 25.8648 4.10647 25.7112C4.04362 25.5576 4.01199 25.393 4.01344 25.227C4.01488 25.061 4.04936 24.897 4.11487 24.7445C4.18038 24.592 4.27561 24.4541 4.395 24.3387L6.1625 22.5712C6.39691 22.3369 6.71479 22.2053 7.04625 22.2053C7.37771 22.2053 7.69434 22.3369 7.92875 22.5712ZM25.6063 4.89375C25.8406 5.12816 25.9722 5.44604 25.9722 5.7775C25.9722 6.10896 25.8406 6.42684 25.6063 6.66125L23.8387 8.42875C23.7234 8.54814 23.5855 8.64337 23.433 8.70888C23.2805 8.77439 23.1165 8.80887 22.9505 8.81031C22.7845 8.81176 22.6199 8.78013 22.4663 8.71728C22.3127 8.65443 22.1731 8.56161 22.0558 8.44424C21.9384 8.32688 21.8456 8.18731 21.7827 8.03369C21.7199 7.88007 21.6882 7.71547 21.6897 7.5495C21.6911 7.38352 21.7256 7.2195 21.7911 7.06699C21.8566 6.91449 21.9519 6.77656 22.0712 6.66125L23.8387 4.89375C24.0732 4.65941 24.391 4.52777 24.7225 4.52777C25.054 4.52777 25.3718 4.65941 25.6063 4.89375ZM4.39375 4.89375C4.62816 4.65941 4.94604 4.52777 5.2775 4.52777C5.60896 4.52777 5.92684 4.65941 6.16125 4.89375L7.92875 6.66125C8.05093 6.77582 8.14884 6.91378 8.21666 7.06693C8.28447 7.22008 8.32082 7.3853 8.32354 7.55277C8.32626 7.72024 8.2953 7.88655 8.23249 8.04182C8.16967 8.19709 8.0763 8.33816 7.9579 8.45663C7.83951 8.57511 7.69851 8.66859 7.54329 8.73151C7.38806 8.79443 7.22177 8.82551 7.0543 8.82291C6.88682 8.82031 6.72158 8.78408 6.56838 8.71637C6.41518 8.64866 6.27716 8.55085 6.1625 8.42875L4.39375 6.6625C4.15941 6.42809 4.02777 6.11021 4.02777 5.77875C4.02777 5.44729 4.15941 5.12816 4.39375 4.89375ZM22.0712 22.5712C22.3057 22.3369 22.6235 22.2053 22.955 22.2053C23.2865 22.2053 23.6043 22.3369 23.8387 22.5712L25.6063 24.3387C25.7256 24.4541 25.8209 24.592 25.8864 24.7445C25.9519 24.897 25.9864 25.061 25.9878 25.227C25.9893 25.393 25.9576 25.5576 25.8948 25.7112C25.8319 25.8648 25.7391 26.0044 25.6217 26.1217C25.5044 26.2391 25.3648 26.3319 25.2112 26.3948C25.0576 26.4576 24.893 26.4893 24.727 26.4878C24.561 26.4864 24.397 26.4519 24.2445 26.3864C24.092 26.3209 23.9541 26.2256 23.8387 26.1063L22.0712 24.3387C21.8369 24.1043 21.7053 23.7865 21.7053 23.455C21.7053 23.1235 21.8369 22.8057 22.0712 22.5712ZM6.25 15.5C6.25 14.3509 6.47633 13.2131 6.91605 12.1515C7.35578 11.0899 8.0003 10.1253 8.81282 9.31282C9.62533 8.5003 10.5899 7.85578 11.6515 7.41605C12.7131 6.97633 13.8509 6.75 15 6.75C16.1491 6.75 17.2869 6.97633 18.3485 7.41605C19.4101 7.85578 20.3747 8.5003 21.1872 9.31282C21.9997 10.1253 22.6442 11.0899 23.0839 12.1515C23.5237 13.2131 23.75 14.3509 23.75 15.5C23.75 17.8206 22.8281 20.0462 21.1872 21.6872C19.5462 23.3281 17.3206 24.25 15 24.25C12.6794 24.25 10.4538 23.3281 8.81282 21.6872C7.17187 20.0462 6.25 17.8206 6.25 15.5Z" fill="black"/>
</svg>
