<svg width="17" height="18" viewBox="0 0 17 18" fill="none" xmlns="http://www.w3.org/2000/svg">
<g clip-path="url(#clip0_287_18)">
<path d="M2.125 0.600098C0.94775 0.600098 0 1.54785 0 2.7251V15.4751C0 16.6523 0.94775 17.6001 2.125 17.6001H14.875C16.0522 17.6001 17 16.6523 17 15.4751V2.7251C17 1.54785 16.0522 0.600098 14.875 0.600098H2.125ZM7.00046 5.02718C7.44671 5.02718 7.71233 5.23968 7.79733 5.66468L8.83362 11.546C9.16276 11.1101 9.43335 10.7434 9.64537 10.4459C9.99778 9.93872 10.302 9.3997 10.5542 8.83589C10.8413 8.23003 10.9848 7.68815 10.9848 7.21026C10.9848 6.92363 10.905 6.69531 10.7454 6.52531C10.5967 6.34492 10.315 6.1166 9.90037 5.84035C10.3254 5.29824 10.8566 5.02718 11.4941 5.02718C11.8341 5.02718 12.1158 5.12824 12.3392 5.33035C12.5729 5.53199 12.6896 5.82949 12.6891 6.22285C12.6891 6.8816 12.4128 7.70515 11.8603 8.69351C11.3187 9.67101 10.2725 11.1425 8.72171 13.1078L7.14425 13.2183L5.93229 6.39851H4.33854V5.72843C4.76354 5.59007 5.26292 5.44132 5.83667 5.28218C6.41042 5.11218 6.79835 5.02718 7.00046 5.02718Z" fill="black"/>
</g>
<defs>
<clipPath id="clip0_287_18">
<rect width="17" height="17" fill="white" transform="translate(0 0.600098)"/>
</clipPath>
</defs>
</svg>
